<svg width="200" height="200" viewBox="0 0 500 500" fill="none" xmlns="http://www.w3.org/2000/svg">
<rect x="2.5" y="2.5" width="495" height="495" rx="97.5" stroke="#CCCCCC" stroke-width="5" stroke-linecap="round"/>
<path d="M346 202.961V316.005C346 326.406 337.602 334.845 327.25 334.845H164.75C154.398 334.845 146 326.406 146 316.005V202.961C146 192.56 154.398 184.121 164.75 184.121H199.125L203.93 171.207C206.664 163.867 213.656 159 221.469 159H270.492C278.305 159 285.297 163.867 288.031 171.207L292.875 184.121H327.25C337.602 184.121 346 192.56 346 202.961ZM292.875 259.483C292.875 233.499 271.859 212.382 246 212.382C220.141 212.382 199.125 233.499 199.125 259.483C199.125 285.467 220.141 306.585 246 306.585C271.859 306.585 292.875 285.467 292.875 259.483ZM280.375 259.483C280.375 278.52 264.945 294.024 246 294.024C227.055 294.024 211.625 278.52 211.625 259.483C211.625 240.446 227.055 224.942 246 224.942C264.945 224.942 280.375 240.446 280.375 259.483Z" fill="#CCCCCC"/>
</svg>
