
<svg width="600" height="140" viewBox="0 0 600 140" fill="none" xmlns="http://www.w3.org/2000/svg">
<line y1="0.5" x2="600" y2="0.5" stroke="white"/>
<line y1="4.46168" x2="600" y2="4.46168" stroke="white"/>
<line y1="67.8484" x2="600" y2="67.8484" stroke="white"/>
<line y1="71.8101" x2="600" y2="71.8101" stroke="white"/>
<line y1="135.197" x2="600" y2="135.197" stroke="white"/>
<line y1="139.159" x2="600" y2="139.159" stroke="white"/>
<path d="M20.2091 4.96168L20.2091 68.3484" stroke="white"/>
<path d="M20.2091 72.3101L20.2091 135.697" stroke="white"/>
<path d="M75.9583 4.96168L75.9582 68.3484" stroke="white"/>
<path d="M75.9583 72.3101L75.9582 135.697" stroke="white"/>
<path d="M131.707 4.96168L131.707 68.3484" stroke="white"/>
<path d="M131.707 72.3101L131.707 135.697" stroke="white"/>
<path d="M187.457 4.96168L187.457 68.3484" stroke="white"/>
<path d="M187.457 72.3101L187.457 135.697" stroke="white"/>
<path d="M243.206 4.96168L243.206 68.3484" stroke="white"/>
<path d="M243.206 72.3101L243.206 135.697" stroke="white"/>
<path d="M298.955 4.96168L298.955 68.3484" stroke="white"/>
<path d="M298.955 72.3101L298.955 135.697" stroke="white"/>
<path d="M354.704 4.96168L354.704 68.3484" stroke="white"/>
<path d="M354.704 72.3101L354.704 135.697" stroke="white"/>
<path d="M410.453 4.96168L410.453 68.3484" stroke="white"/>
<path d="M410.453 72.3101L410.453 135.697" stroke="white"/>
<path d="M466.202 4.96168L466.202 68.3484" stroke="white"/>
<path d="M521.951 4.96168L521.951 68.3484" stroke="white"/>
<path d="M521.951 72.3101L521.951 135.697" stroke="white"/>
<path d="M577.7 4.96168L577.7 68.3484" stroke="white"/>
<path d="M577.7 72.3101L577.7 135.697" stroke="white"/>
<path d="M466.202 72.3101L466.202 135.697" stroke="white"/>
<path d="M47.488 20.836C51.808 20.836 54.58 22.132 54.58 24.508C54.58 26.92 51.808 28.216 47.488 28.216C43.132 28.216 40.36 26.92 40.36 24.508C40.36 22.132 43.132 20.836 47.488 20.836ZM47.488 31.996C54.544 31.996 59.476 29.08 59.476 24.508C59.476 20.008 54.544 17.056 47.488 17.056C40.396 17.056 35.5 20.008 35.5 24.508C35.5 29.08 40.396 31.996 47.488 31.996ZM62.572 34.48H32.548V38.296H45.076V49.132H49.828V38.296H62.572V34.48Z" fill="white"/>
<path d="M49.972 102.004C50.116 101.104 50.188 100.096 50.188 99.052C50.188 97.792 50.08 96.604 49.864 95.524H55.624V102.004H49.972ZM41.62 106.612C39.208 106.612 37.552 103.984 37.552 99.052C37.552 94.156 39.208 91.528 41.62 91.528C44.068 91.528 45.724 94.156 45.724 99.052C45.724 103.984 44.068 106.612 41.62 106.612ZM55.624 84.904V91.708H48.568C47.092 88.864 44.608 87.244 41.62 87.244C36.688 87.244 33.052 91.78 33.052 99.052C33.052 106.36 36.688 110.932 41.62 110.932C44.824 110.968 47.38 109.096 48.856 105.856H55.624V118.168H60.376V84.904H55.624Z" fill="white"/>
<path d="M95.172 31.564H105.936V18.748H90.276V22.528H101.076V27.82H90.312V41.464H93.3C99.312 41.464 104.172 41.248 109.572 40.312L109.068 36.46C104.388 37.252 100.212 37.504 95.172 37.54V31.564ZM111.372 15.904V49.168H116.124V15.904H111.372Z" fill="white"/>
<path d="M90.384 88.36V92.14H101.436C100.752 99.484 97.08 104.668 88.62 108.736L91.104 112.48C102.876 106.792 106.296 98.512 106.296 88.36H90.384ZM111.372 84.904V118.06H116.16V84.904H111.372Z" fill="white"/>
<path d="M159.452 45.532C155.024 45.532 152.756 44.776 152.756 43.048C152.756 41.32 155.024 40.528 159.452 40.528C163.88 40.528 166.148 41.32 166.148 43.048C166.148 44.776 163.88 45.532 159.452 45.532ZM159.452 36.928C152.288 36.928 147.968 39.124 147.968 43.048C147.968 46.936 152.288 49.132 159.452 49.132C166.616 49.132 170.972 46.936 170.972 43.048C170.972 39.124 166.616 36.928 159.452 36.928ZM161.936 31.528V28.792H171.152V25.012H152.936V21.124H170.972V17.344H148.22V28.792H157.184V31.528H144.584V35.308H174.572V31.528H161.936Z" fill="white"/>
<path d="M206.488 19.108H201.844V41.176H204.148C208.324 41.176 211.924 41.032 215.884 40.204L215.308 36.244C212.248 36.82 209.476 37.036 206.488 37.108V19.108ZM217.54 26.38H211.024V30.232H217.54V47.62H221.968V16.48H217.54V26.38ZM224.56 15.904V49.06H229.06V15.904H224.56Z" fill="white"/>
<path d="M314.284 27.676C320.656 27.244 324.796 25.228 326.524 22.348C328.252 25.228 332.428 27.244 338.8 27.676L340.276 24.148C334.3 23.788 331.06 22.168 330.088 20.368H338.836V16.768H314.284V20.368H322.96C321.988 22.168 318.748 23.788 312.808 24.148L314.284 27.676ZM326.452 46.072C322.996 46.072 321.268 45.712 321.268 44.848C321.268 43.948 322.996 43.588 326.452 43.588C329.944 43.588 331.708 43.948 331.708 44.848C331.708 45.712 329.944 46.072 326.452 46.072ZM326.452 40.456C320.08 40.456 316.372 42.004 316.372 44.848C316.372 47.692 320.08 49.204 326.452 49.204C332.896 49.204 336.604 47.692 336.604 44.848C336.604 42.004 332.896 40.456 326.452 40.456ZM328.864 33.616H324.112V35.956H314.248V39.484H338.764V35.956H328.864V33.616ZM328.864 28.864V25.84H324.112V28.864H311.548V32.572H341.608V28.864H328.864Z" fill="white"/>
<path d="M206.56 91.852H217.288V88H201.808V110.212H204.652C210.412 110.212 214.948 110.032 219.952 109.132L219.484 105.208C215.2 105.928 211.276 106.18 206.56 106.252V91.852ZM231.328 97.18H226.504V84.94H221.752V118.168H226.504V101.104H231.328V97.18Z" fill="white"/>
<path d="M382.524 20.656C386.988 20.656 389.652 21.736 389.652 23.752C389.652 25.804 386.988 26.812 382.524 26.812C378.096 26.812 375.432 25.804 375.432 23.752C375.432 21.736 378.096 20.656 382.524 20.656ZM382.524 30.592C389.76 30.592 394.548 27.964 394.548 23.752C394.548 19.54 389.76 16.912 382.524 16.912C375.324 16.912 370.536 19.54 370.536 23.752C370.536 27.964 375.324 30.592 382.524 30.592ZM375.936 38.872H371.184V48.52H394.152V44.74H375.936V38.872ZM367.548 32.86V36.64H397.5V32.86H367.548Z" fill="white"/>
<path d="M263.36 91.132H277.652V99.916H263.36V91.132ZM272.9 110.392V103.66H282.296V87.388H258.716V103.66H268.148V110.392H255.548V114.244H285.572V110.392H272.9Z" fill="white"/>
<path d="M424.456 19.108V22.888H434.968C434.86 24.472 434.608 25.912 434.284 27.28L422.692 27.964L423.304 31.996L432.916 31.06C431.044 34.696 427.84 37.792 422.404 40.492L424.924 44.164C437.272 37.864 439.684 29.332 439.684 19.108H424.456ZM453.148 28.576H448.504V15.904H443.752V49.024H448.504V32.5H453.148V28.576Z" fill="white"/>
<path d="M320.8 90.664C323.284 90.664 325.156 92.176 325.156 94.732C325.156 97.288 323.284 98.764 320.8 98.764C318.28 98.764 316.444 97.288 316.444 94.732C316.444 92.176 318.28 90.664 320.8 90.664ZM320.8 102.76C325.876 102.76 329.764 99.412 329.764 94.732C329.764 90.052 325.876 86.704 320.8 86.704C315.688 86.704 311.8 90.052 311.8 94.732C311.8 99.412 315.688 102.76 320.8 102.76ZM335.308 104.848H330.592V106.036C330.592 108.52 329.512 111.472 326.848 113.416C324.22 111.544 323.176 108.772 323.176 106.036V104.848H318.568V106.036C318.568 109.312 316.768 112.696 312.448 114.244L314.788 117.664C317.776 116.584 319.72 114.604 320.872 112.12C321.952 114.712 323.824 116.872 326.884 117.988C329.872 116.8 331.816 114.568 332.896 112.012C334.012 114.568 335.992 116.584 339.088 117.664L341.428 114.244C337.072 112.804 335.308 109.564 335.308 106.036V104.848ZM337.648 92.032V84.94H332.896V103.444H337.648V95.884H342.04V92.032H337.648Z" fill="white"/>
<path d="M485.064 23.464H487.512V37.504C486.72 37.576 485.856 37.612 485.064 37.612V23.464ZM491.76 23.464H493.884V19.684H478.8V23.464H480.816V37.72C479.88 37.72 479.016 37.72 478.224 37.72L478.728 41.572C482.832 41.572 489.528 41.464 494.676 40.348L494.352 36.928C493.56 37.036 492.66 37.108 491.76 37.216V23.464ZM496.224 28.036H493.056V32.176H496.224V47.584H500.652V16.624H496.224V28.036ZM502.812 15.94V49.132H507.312V15.94H502.812Z" fill="white"/>
<path d="M373.56 91.852H384.288V88H368.808V110.212H371.652C377.412 110.212 381.948 110.032 386.952 109.132L386.484 105.208C382.2 105.928 378.276 106.18 373.56 106.252V91.852ZM398.328 97.18H393.504V84.94H388.752V118.168H393.504V101.104H398.328V97.18Z" fill="white"/>
<path d="M440.541 106.896H435.742L434.986 89.4062H441.297L440.541 106.896ZM434.811 112.346C434.811 111.479 435.121 110.77 435.742 110.219C436.375 109.656 437.16 109.375 438.098 109.375C439.035 109.375 439.814 109.656 440.436 110.219C441.068 110.77 441.385 111.479 441.385 112.346C441.385 113.213 441.068 113.928 440.436 114.49C439.814 115.041 439.035 115.316 438.098 115.316C437.16 115.316 436.375 115.041 435.742 114.49C435.121 113.928 434.811 113.213 434.811 112.346Z" fill="white"/>
</svg>

