<svg width="600" height="140" viewBox="0 0 600 140" fill="none" xmlns="http://www.w3.org/2000/svg">
<line y1="0.5" x2="600" y2="0.5" stroke="white"/>
<line y1="4.46168" x2="600" y2="4.46168" stroke="white"/>
<line y1="67.8484" x2="600" y2="67.8484" stroke="white"/>
<line y1="71.8101" x2="600" y2="71.8101" stroke="white"/>
<line y1="135.197" x2="600" y2="135.197" stroke="white"/>
<line y1="139.159" x2="600" y2="139.159" stroke="white"/>
<path d="M20.2091 4.96168L20.2091 68.3484" stroke="white"/>
<path d="M20.2091 72.3101L20.2091 135.697" stroke="white"/>
<path d="M75.9583 4.96168L75.9582 68.3484" stroke="white"/>
<path d="M75.9583 72.3101L75.9582 135.697" stroke="white"/>
<path d="M131.707 4.96168L131.707 68.3484" stroke="white"/>
<path d="M131.707 72.3101L131.707 135.697" stroke="white"/>
<path d="M187.457 4.96168L187.457 68.3484" stroke="white"/>
<path d="M187.457 72.3101L187.457 135.697" stroke="white"/>
<path d="M243.206 4.96168L243.206 68.3484" stroke="white"/>
<path d="M243.206 72.3101L243.206 135.697" stroke="white"/>
<path d="M298.955 4.96168L298.955 68.3484" stroke="white"/>
<path d="M298.955 72.3101L298.955 135.697" stroke="white"/>
<path d="M354.704 4.96168L354.704 68.3484" stroke="white"/>
<path d="M354.704 72.3101L354.704 135.697" stroke="white"/>
<path d="M410.453 4.96168L410.453 68.3484" stroke="white"/>
<path d="M410.453 72.3101L410.453 135.697" stroke="white"/>
<path d="M466.202 4.96168L466.202 68.3484" stroke="white"/>
<path d="M521.951 4.96168L521.951 68.3484" stroke="white"/>
<path d="M521.951 72.3101L521.951 135.697" stroke="white"/>
<path d="M577.7 4.96168L577.7 68.3484" stroke="white"/>
<path d="M577.7 72.3101L577.7 135.697" stroke="white"/>
<path d="M466.202 72.3101L466.202 135.697" stroke="white"/>
</svg>
